<mxfile host="app.diagrams.net" modified="2023-06-17T10:32:36.859Z" agent="Mozilla/5.0 (Windows NT 10.0; Win64; x64) AppleWebKit/537.36 (KHTML, like Gecko) Chrome/116.0.0.0 Safari/537.36" etag="goo_yA7805CyWYXGJNwY" version="21.2.1" type="github">
  <diagram name="Page-1" id="-0vdK0xVFof8tf35XNZn">
    <mxGraphModel dx="1434" dy="750" grid="1" gridSize="10" guides="1" tooltips="1" connect="1" arrows="1" fold="1" page="1" pageScale="1" pageWidth="850" pageHeight="1100" math="0" shadow="0">
      <root>
        <mxCell id="0" />
        <mxCell id="1" parent="0" />
        <mxCell id="JBsa1fQ0aQ5CUUhr2S4v-1" value="Book delivery process" style="swimlane;html=1;childLayout=stackLayout;resizeParent=1;resizeParentMax=0;horizontal=1;startSize=20;horizontalStack=0;whiteSpace=wrap;" vertex="1" collapsed="1" parent="1">
          <mxGeometry x="60" y="90" width="750" height="70" as="geometry">
            <mxRectangle x="60" y="90" width="1900" height="590" as="alternateBounds" />
          </mxGeometry>
        </mxCell>
        <mxCell id="JBsa1fQ0aQ5CUUhr2S4v-2" value="Customer" style="swimlane;html=1;startSize=20;horizontal=0;" vertex="1" parent="JBsa1fQ0aQ5CUUhr2S4v-1">
          <mxGeometry y="20" width="1900" height="170" as="geometry" />
        </mxCell>
        <mxCell id="JBsa1fQ0aQ5CUUhr2S4v-3" style="edgeStyle=orthogonalEdgeStyle;rounded=0;orthogonalLoop=1;jettySize=auto;html=1;" edge="1" parent="JBsa1fQ0aQ5CUUhr2S4v-2" source="JBsa1fQ0aQ5CUUhr2S4v-4" target="JBsa1fQ0aQ5CUUhr2S4v-5">
          <mxGeometry relative="1" as="geometry" />
        </mxCell>
        <mxCell id="JBsa1fQ0aQ5CUUhr2S4v-4" value="books &lt;br&gt;selected" style="points=[[0.145,0.145,0],[0.5,0,0],[0.855,0.145,0],[1,0.5,0],[0.855,0.855,0],[0.5,1,0],[0.145,0.855,0],[0,0.5,0]];shape=mxgraph.bpmn.event;html=1;verticalLabelPosition=bottom;labelBackgroundColor=#ffffff;verticalAlign=top;align=center;perimeter=ellipsePerimeter;outlineConnect=0;aspect=fixed;outline=standard;symbol=general;direction=south;fillColor=#d5e8d4;strokeColor=#82b366;" vertex="1" parent="JBsa1fQ0aQ5CUUhr2S4v-2">
          <mxGeometry x="40" y="67.5" width="35" height="35" as="geometry" />
        </mxCell>
        <mxCell id="JBsa1fQ0aQ5CUUhr2S4v-5" value="Form application" style="points=[[0.25,0,0],[0.5,0,0],[0.75,0,0],[1,0.25,0],[1,0.5,0],[1,0.75,0],[0.75,1,0],[0.5,1,0],[0.25,1,0],[0,0.75,0],[0,0.5,0],[0,0.25,0]];shape=mxgraph.bpmn.task;whiteSpace=wrap;rectStyle=rounded;size=10;html=1;container=1;expand=0;collapsible=0;taskMarker=abstract;" vertex="1" parent="JBsa1fQ0aQ5CUUhr2S4v-2">
          <mxGeometry x="146" y="57.5" width="100" height="55" as="geometry" />
        </mxCell>
        <mxCell id="JBsa1fQ0aQ5CUUhr2S4v-6" value="&lt;b&gt;YES&lt;/b&gt;" style="edgeStyle=orthogonalEdgeStyle;rounded=0;orthogonalLoop=1;jettySize=auto;html=1;entryX=1;entryY=0.5;entryDx=0;entryDy=0;entryPerimeter=0;" edge="1" parent="JBsa1fQ0aQ5CUUhr2S4v-2" source="JBsa1fQ0aQ5CUUhr2S4v-9" target="JBsa1fQ0aQ5CUUhr2S4v-5">
          <mxGeometry relative="1" as="geometry" />
        </mxCell>
        <mxCell id="JBsa1fQ0aQ5CUUhr2S4v-7" style="edgeStyle=orthogonalEdgeStyle;rounded=0;orthogonalLoop=1;jettySize=auto;html=1;entryX=0;entryY=0.5;entryDx=0;entryDy=0;entryPerimeter=0;" edge="1" parent="JBsa1fQ0aQ5CUUhr2S4v-2" source="JBsa1fQ0aQ5CUUhr2S4v-9" target="JBsa1fQ0aQ5CUUhr2S4v-10">
          <mxGeometry relative="1" as="geometry" />
        </mxCell>
        <mxCell id="JBsa1fQ0aQ5CUUhr2S4v-8" value="&lt;b&gt;NO&lt;/b&gt;" style="edgeLabel;html=1;align=center;verticalAlign=middle;resizable=0;points=[];" vertex="1" connectable="0" parent="JBsa1fQ0aQ5CUUhr2S4v-7">
          <mxGeometry x="-0.108" y="1" relative="1" as="geometry">
            <mxPoint as="offset" />
          </mxGeometry>
        </mxCell>
        <mxCell id="JBsa1fQ0aQ5CUUhr2S4v-9" value="Change the application?" style="points=[[0.25,0.25,0],[0.5,0,0],[0.75,0.25,0],[1,0.5,0],[0.75,0.75,0],[0.5,1,0],[0.25,0.75,0],[0,0.5,0]];shape=mxgraph.bpmn.gateway2;html=1;verticalLabelPosition=top;labelBackgroundColor=#ffffff;verticalAlign=bottom;align=center;perimeter=rhombusPerimeter;outlineConnect=0;outline=none;symbol=none;gwType=exclusive;labelPosition=center;" vertex="1" parent="JBsa1fQ0aQ5CUUhr2S4v-2">
          <mxGeometry x="340" y="60" width="50" height="50" as="geometry" />
        </mxCell>
        <mxCell id="JBsa1fQ0aQ5CUUhr2S4v-10" value="Application canceled" style="points=[[0.145,0.145,0],[0.5,0,0],[0.855,0.145,0],[1,0.5,0],[0.855,0.855,0],[0.5,1,0],[0.145,0.855,0],[0,0.5,0]];shape=mxgraph.bpmn.event;html=1;verticalLabelPosition=bottom;labelBackgroundColor=#ffffff;verticalAlign=top;align=center;perimeter=ellipsePerimeter;outlineConnect=0;aspect=fixed;outline=end;symbol=terminate2;fillColor=#f8cecc;strokeColor=#b85450;" vertex="1" parent="JBsa1fQ0aQ5CUUhr2S4v-2">
          <mxGeometry x="520" y="67.5" width="35" height="35" as="geometry" />
        </mxCell>
        <mxCell id="JBsa1fQ0aQ5CUUhr2S4v-11" value="Choose comfortable period of time" style="points=[[0.25,0,0],[0.5,0,0],[0.75,0,0],[1,0.25,0],[1,0.5,0],[1,0.75,0],[0.75,1,0],[0.5,1,0],[0.25,1,0],[0,0.75,0],[0,0.5,0],[0,0.25,0]];shape=mxgraph.bpmn.task;whiteSpace=wrap;rectStyle=rounded;size=10;html=1;container=1;expand=0;collapsible=0;taskMarker=abstract;" vertex="1" parent="JBsa1fQ0aQ5CUUhr2S4v-2">
          <mxGeometry x="770" y="57.5" width="104" height="55" as="geometry" />
        </mxCell>
        <mxCell id="JBsa1fQ0aQ5CUUhr2S4v-12" value="Get products" style="points=[[0.25,0,0],[0.5,0,0],[0.75,0,0],[1,0.25,0],[1,0.5,0],[1,0.75,0],[0.75,1,0],[0.5,1,0],[0.25,1,0],[0,0.75,0],[0,0.5,0],[0,0.25,0]];shape=mxgraph.bpmn.task;whiteSpace=wrap;rectStyle=rounded;size=10;html=1;container=1;expand=0;collapsible=0;taskMarker=abstract;" vertex="1" parent="JBsa1fQ0aQ5CUUhr2S4v-2">
          <mxGeometry x="1507" y="67.5" width="104" height="55" as="geometry" />
        </mxCell>
        <mxCell id="JBsa1fQ0aQ5CUUhr2S4v-13" value="Warehouse service" style="swimlane;html=1;startSize=20;horizontal=0;" vertex="1" parent="JBsa1fQ0aQ5CUUhr2S4v-1">
          <mxGeometry y="190" width="1900" height="160" as="geometry" />
        </mxCell>
        <mxCell id="JBsa1fQ0aQ5CUUhr2S4v-14" value="" style="edgeStyle=orthogonalEdgeStyle;rounded=0;orthogonalLoop=1;jettySize=auto;html=1;" edge="1" parent="JBsa1fQ0aQ5CUUhr2S4v-13" source="JBsa1fQ0aQ5CUUhr2S4v-15" target="JBsa1fQ0aQ5CUUhr2S4v-18">
          <mxGeometry relative="1" as="geometry" />
        </mxCell>
        <mxCell id="JBsa1fQ0aQ5CUUhr2S4v-15" value="Check products" style="points=[[0.25,0,0],[0.5,0,0],[0.75,0,0],[1,0.25,0],[1,0.5,0],[1,0.75,0],[0.75,1,0],[0.5,1,0],[0.25,1,0],[0,0.75,0],[0,0.5,0],[0,0.25,0]];shape=mxgraph.bpmn.task;whiteSpace=wrap;rectStyle=rounded;size=10;html=1;container=1;expand=0;collapsible=0;taskMarker=abstract;" vertex="1" parent="JBsa1fQ0aQ5CUUhr2S4v-13">
          <mxGeometry x="146" y="52.5" width="100" height="55" as="geometry" />
        </mxCell>
        <mxCell id="JBsa1fQ0aQ5CUUhr2S4v-16" style="edgeStyle=orthogonalEdgeStyle;rounded=0;orthogonalLoop=1;jettySize=auto;html=1;entryX=0;entryY=0.5;entryDx=0;entryDy=0;entryPerimeter=0;" edge="1" parent="JBsa1fQ0aQ5CUUhr2S4v-13" source="JBsa1fQ0aQ5CUUhr2S4v-18" target="JBsa1fQ0aQ5CUUhr2S4v-19">
          <mxGeometry relative="1" as="geometry" />
        </mxCell>
        <mxCell id="JBsa1fQ0aQ5CUUhr2S4v-17" value="&lt;b&gt;YES&lt;/b&gt;" style="edgeLabel;html=1;align=center;verticalAlign=middle;resizable=0;points=[];" vertex="1" connectable="0" parent="JBsa1fQ0aQ5CUUhr2S4v-16">
          <mxGeometry x="-0.1881" y="1" relative="1" as="geometry">
            <mxPoint as="offset" />
          </mxGeometry>
        </mxCell>
        <mxCell id="JBsa1fQ0aQ5CUUhr2S4v-18" value="Is there products?" style="points=[[0.25,0.25,0],[0.5,0,0],[0.75,0.25,0],[1,0.5,0],[0.75,0.75,0],[0.5,1,0],[0.25,0.75,0],[0,0.5,0]];shape=mxgraph.bpmn.gateway2;html=1;verticalLabelPosition=bottom;labelBackgroundColor=#ffffff;verticalAlign=top;align=center;perimeter=rhombusPerimeter;outlineConnect=0;outline=none;symbol=none;gwType=exclusive;" vertex="1" parent="JBsa1fQ0aQ5CUUhr2S4v-13">
          <mxGeometry x="340" y="55" width="50" height="50" as="geometry" />
        </mxCell>
        <mxCell id="JBsa1fQ0aQ5CUUhr2S4v-19" value="Reserve products" style="points=[[0.25,0,0],[0.5,0,0],[0.75,0,0],[1,0.25,0],[1,0.5,0],[1,0.75,0],[0.75,1,0],[0.5,1,0],[0.25,1,0],[0,0.75,0],[0,0.5,0],[0,0.25,0]];shape=mxgraph.bpmn.task;whiteSpace=wrap;rectStyle=rounded;size=10;html=1;container=1;expand=0;collapsible=0;taskMarker=abstract;" vertex="1" parent="JBsa1fQ0aQ5CUUhr2S4v-13">
          <mxGeometry x="480" y="52.5" width="104" height="55" as="geometry" />
        </mxCell>
        <mxCell id="JBsa1fQ0aQ5CUUhr2S4v-20" value="Free products" style="points=[[0.25,0,0],[0.5,0,0],[0.75,0,0],[1,0.25,0],[1,0.5,0],[1,0.75,0],[0.75,1,0],[0.5,1,0],[0.25,1,0],[0,0.75,0],[0,0.5,0],[0,0.25,0]];shape=mxgraph.bpmn.task;whiteSpace=wrap;rectStyle=rounded;size=10;html=1;container=1;expand=0;collapsible=0;taskMarker=abstract;" vertex="1" parent="JBsa1fQ0aQ5CUUhr2S4v-13">
          <mxGeometry x="1255" y="52.5" width="104" height="55" as="geometry" />
        </mxCell>
        <mxCell id="JBsa1fQ0aQ5CUUhr2S4v-21" value="Delivery service" style="swimlane;html=1;startSize=20;horizontal=0;" vertex="1" parent="JBsa1fQ0aQ5CUUhr2S4v-1">
          <mxGeometry y="350" width="1900" height="120" as="geometry" />
        </mxCell>
        <mxCell id="JBsa1fQ0aQ5CUUhr2S4v-22" value="Book has delivered" style="points=[[0.145,0.145,0],[0.5,0,0],[0.855,0.145,0],[1,0.5,0],[0.855,0.855,0],[0.5,1,0],[0.145,0.855,0],[0,0.5,0]];shape=mxgraph.bpmn.event;html=1;verticalLabelPosition=bottom;labelBackgroundColor=#ffffff;verticalAlign=top;align=center;perimeter=ellipsePerimeter;outlineConnect=0;aspect=fixed;outline=end;symbol=terminate2;fillColor=#f8cecc;strokeColor=#b85450;" vertex="1" parent="JBsa1fQ0aQ5CUUhr2S4v-21">
          <mxGeometry x="1820" y="52.5" width="35" height="35" as="geometry" />
        </mxCell>
        <mxCell id="JBsa1fQ0aQ5CUUhr2S4v-23" value="Choose courier" style="points=[[0.25,0,0],[0.5,0,0],[0.75,0,0],[1,0.25,0],[1,0.5,0],[1,0.75,0],[0.75,1,0],[0.5,1,0],[0.25,1,0],[0,0.75,0],[0,0.5,0],[0,0.25,0]];shape=mxgraph.bpmn.task;whiteSpace=wrap;rectStyle=rounded;size=10;html=1;container=1;expand=0;collapsible=0;taskMarker=abstract;" vertex="1" parent="JBsa1fQ0aQ5CUUhr2S4v-21">
          <mxGeometry x="480" y="32.5" width="104" height="55" as="geometry" />
        </mxCell>
        <mxCell id="JBsa1fQ0aQ5CUUhr2S4v-24" value="Find available periods of the delivery" style="points=[[0.25,0,0],[0.5,0,0],[0.75,0,0],[1,0.25,0],[1,0.5,0],[1,0.75,0],[0.75,1,0],[0.5,1,0],[0.25,1,0],[0,0.75,0],[0,0.5,0],[0,0.25,0]];shape=mxgraph.bpmn.task;whiteSpace=wrap;rectStyle=rounded;size=10;html=1;container=1;expand=0;collapsible=0;taskMarker=abstract;" vertex="1" parent="JBsa1fQ0aQ5CUUhr2S4v-21">
          <mxGeometry x="770" y="32.5" width="104" height="55" as="geometry" />
        </mxCell>
        <mxCell id="JBsa1fQ0aQ5CUUhr2S4v-25" style="edgeStyle=orthogonalEdgeStyle;rounded=0;orthogonalLoop=1;jettySize=auto;html=1;entryX=0;entryY=0.5;entryDx=0;entryDy=0;entryPerimeter=0;" edge="1" parent="JBsa1fQ0aQ5CUUhr2S4v-21" source="JBsa1fQ0aQ5CUUhr2S4v-26" target="JBsa1fQ0aQ5CUUhr2S4v-28">
          <mxGeometry relative="1" as="geometry" />
        </mxCell>
        <mxCell id="JBsa1fQ0aQ5CUUhr2S4v-26" value="" style="points=[[0.25,0.25,0],[0.5,0,0],[0.75,0.25,0],[1,0.5,0],[0.75,0.75,0],[0.5,1,0],[0.25,0.75,0],[0,0.5,0]];shape=mxgraph.bpmn.gateway2;html=1;verticalLabelPosition=bottom;labelBackgroundColor=#ffffff;verticalAlign=top;align=center;perimeter=rhombusPerimeter;outlineConnect=0;outline=none;symbol=none;gwType=parallel;" vertex="1" parent="JBsa1fQ0aQ5CUUhr2S4v-21">
          <mxGeometry x="950" y="35" width="50" height="50" as="geometry" />
        </mxCell>
        <mxCell id="JBsa1fQ0aQ5CUUhr2S4v-27" style="edgeStyle=orthogonalEdgeStyle;rounded=0;orthogonalLoop=1;jettySize=auto;html=1;entryX=0;entryY=0.5;entryDx=0;entryDy=0;entryPerimeter=0;" edge="1" parent="JBsa1fQ0aQ5CUUhr2S4v-21" source="JBsa1fQ0aQ5CUUhr2S4v-28" target="JBsa1fQ0aQ5CUUhr2S4v-29">
          <mxGeometry relative="1" as="geometry" />
        </mxCell>
        <mxCell id="JBsa1fQ0aQ5CUUhr2S4v-28" value="Reserve time for currier" style="points=[[0.25,0,0],[0.5,0,0],[0.75,0,0],[1,0.25,0],[1,0.5,0],[1,0.75,0],[0.75,1,0],[0.5,1,0],[0.25,1,0],[0,0.75,0],[0,0.5,0],[0,0.25,0]];shape=mxgraph.bpmn.task;whiteSpace=wrap;rectStyle=rounded;size=10;html=1;container=1;expand=0;collapsible=0;taskMarker=abstract;" vertex="1" parent="JBsa1fQ0aQ5CUUhr2S4v-21">
          <mxGeometry x="1060" y="32.5" width="104" height="55" as="geometry" />
        </mxCell>
        <mxCell id="JBsa1fQ0aQ5CUUhr2S4v-29" value="" style="points=[[0.25,0.25,0],[0.5,0,0],[0.75,0.25,0],[1,0.5,0],[0.75,0.75,0],[0.5,1,0],[0.25,0.75,0],[0,0.5,0]];shape=mxgraph.bpmn.gateway2;html=1;verticalLabelPosition=bottom;labelBackgroundColor=#ffffff;verticalAlign=top;align=center;perimeter=rhombusPerimeter;outlineConnect=0;outline=none;symbol=none;gwType=parallel;" vertex="1" parent="JBsa1fQ0aQ5CUUhr2S4v-21">
          <mxGeometry x="1390" y="34" width="50" height="50" as="geometry" />
        </mxCell>
        <mxCell id="JBsa1fQ0aQ5CUUhr2S4v-30" style="edgeStyle=orthogonalEdgeStyle;rounded=0;orthogonalLoop=1;jettySize=auto;html=1;entryX=0;entryY=0.5;entryDx=0;entryDy=0;entryPerimeter=0;" edge="1" parent="JBsa1fQ0aQ5CUUhr2S4v-21" source="JBsa1fQ0aQ5CUUhr2S4v-31" target="JBsa1fQ0aQ5CUUhr2S4v-22">
          <mxGeometry relative="1" as="geometry" />
        </mxCell>
        <mxCell id="JBsa1fQ0aQ5CUUhr2S4v-31" value="Change status of the order" style="points=[[0.25,0,0],[0.5,0,0],[0.75,0,0],[1,0.25,0],[1,0.5,0],[1,0.75,0],[0.75,1,0],[0.5,1,0],[0.25,1,0],[0,0.75,0],[0,0.5,0],[0,0.25,0]];shape=mxgraph.bpmn.task;whiteSpace=wrap;rectStyle=rounded;size=10;html=1;container=1;expand=0;collapsible=0;taskMarker=abstract;" vertex="1" parent="JBsa1fQ0aQ5CUUhr2S4v-21">
          <mxGeometry x="1640" y="42.5" width="104" height="55" as="geometry" />
        </mxCell>
        <mxCell id="JBsa1fQ0aQ5CUUhr2S4v-32" style="edgeStyle=orthogonalEdgeStyle;rounded=0;orthogonalLoop=1;jettySize=auto;html=1;entryX=0.5;entryY=0;entryDx=0;entryDy=0;entryPerimeter=0;" edge="1" parent="JBsa1fQ0aQ5CUUhr2S4v-1" source="JBsa1fQ0aQ5CUUhr2S4v-5" target="JBsa1fQ0aQ5CUUhr2S4v-15">
          <mxGeometry relative="1" as="geometry" />
        </mxCell>
        <mxCell id="JBsa1fQ0aQ5CUUhr2S4v-33" style="edgeStyle=orthogonalEdgeStyle;rounded=0;orthogonalLoop=1;jettySize=auto;html=1;entryX=0.5;entryY=1;entryDx=0;entryDy=0;entryPerimeter=0;" edge="1" parent="JBsa1fQ0aQ5CUUhr2S4v-1" source="JBsa1fQ0aQ5CUUhr2S4v-18" target="JBsa1fQ0aQ5CUUhr2S4v-9">
          <mxGeometry relative="1" as="geometry" />
        </mxCell>
        <mxCell id="JBsa1fQ0aQ5CUUhr2S4v-34" value="&lt;b style=&quot;font-size: 11px;&quot;&gt;NO&lt;/b&gt;" style="edgeLabel;html=1;align=center;verticalAlign=middle;resizable=0;points=[];fontSize=11;" vertex="1" connectable="0" parent="JBsa1fQ0aQ5CUUhr2S4v-33">
          <mxGeometry x="-0.243" y="1" relative="1" as="geometry">
            <mxPoint x="1" y="11" as="offset" />
          </mxGeometry>
        </mxCell>
        <mxCell id="JBsa1fQ0aQ5CUUhr2S4v-35" style="edgeStyle=orthogonalEdgeStyle;rounded=0;orthogonalLoop=1;jettySize=auto;html=1;" edge="1" parent="JBsa1fQ0aQ5CUUhr2S4v-1" source="JBsa1fQ0aQ5CUUhr2S4v-19" target="JBsa1fQ0aQ5CUUhr2S4v-23">
          <mxGeometry relative="1" as="geometry" />
        </mxCell>
        <mxCell id="JBsa1fQ0aQ5CUUhr2S4v-36" style="edgeStyle=orthogonalEdgeStyle;rounded=0;orthogonalLoop=1;jettySize=auto;html=1;entryX=0.5;entryY=0;entryDx=0;entryDy=0;entryPerimeter=0;" edge="1" parent="JBsa1fQ0aQ5CUUhr2S4v-1" source="JBsa1fQ0aQ5CUUhr2S4v-23" target="JBsa1fQ0aQ5CUUhr2S4v-45">
          <mxGeometry relative="1" as="geometry" />
        </mxCell>
        <mxCell id="JBsa1fQ0aQ5CUUhr2S4v-37" style="edgeStyle=orthogonalEdgeStyle;rounded=0;orthogonalLoop=1;jettySize=auto;html=1;entryX=1;entryY=0.5;entryDx=0;entryDy=0;entryPerimeter=0;exitX=0.5;exitY=0;exitDx=0;exitDy=0;exitPerimeter=0;" edge="1" parent="JBsa1fQ0aQ5CUUhr2S4v-1" source="JBsa1fQ0aQ5CUUhr2S4v-46" target="JBsa1fQ0aQ5CUUhr2S4v-23">
          <mxGeometry relative="1" as="geometry" />
        </mxCell>
        <mxCell id="JBsa1fQ0aQ5CUUhr2S4v-38" value="&lt;b&gt;NO&lt;/b&gt;" style="edgeLabel;html=1;align=center;verticalAlign=middle;resizable=0;points=[];" vertex="1" connectable="0" parent="JBsa1fQ0aQ5CUUhr2S4v-37">
          <mxGeometry x="-0.839" y="-2" relative="1" as="geometry">
            <mxPoint x="-2" as="offset" />
          </mxGeometry>
        </mxCell>
        <mxCell id="JBsa1fQ0aQ5CUUhr2S4v-39" style="edgeStyle=orthogonalEdgeStyle;rounded=0;orthogonalLoop=1;jettySize=auto;html=1;entryX=0.5;entryY=1;entryDx=0;entryDy=0;entryPerimeter=0;" edge="1" parent="JBsa1fQ0aQ5CUUhr2S4v-1" source="JBsa1fQ0aQ5CUUhr2S4v-46" target="JBsa1fQ0aQ5CUUhr2S4v-24">
          <mxGeometry relative="1" as="geometry" />
        </mxCell>
        <mxCell id="JBsa1fQ0aQ5CUUhr2S4v-40" style="edgeStyle=orthogonalEdgeStyle;rounded=0;orthogonalLoop=1;jettySize=auto;html=1;entryX=0.5;entryY=1;entryDx=0;entryDy=0;entryPerimeter=0;" edge="1" parent="JBsa1fQ0aQ5CUUhr2S4v-1" source="JBsa1fQ0aQ5CUUhr2S4v-24" target="JBsa1fQ0aQ5CUUhr2S4v-11">
          <mxGeometry relative="1" as="geometry" />
        </mxCell>
        <mxCell id="JBsa1fQ0aQ5CUUhr2S4v-41" style="edgeStyle=orthogonalEdgeStyle;rounded=0;orthogonalLoop=1;jettySize=auto;html=1;entryX=0.5;entryY=0;entryDx=0;entryDy=0;entryPerimeter=0;" edge="1" parent="JBsa1fQ0aQ5CUUhr2S4v-1" source="JBsa1fQ0aQ5CUUhr2S4v-11" target="JBsa1fQ0aQ5CUUhr2S4v-26">
          <mxGeometry relative="1" as="geometry" />
        </mxCell>
        <mxCell id="JBsa1fQ0aQ5CUUhr2S4v-42" style="edgeStyle=orthogonalEdgeStyle;rounded=0;orthogonalLoop=1;jettySize=auto;html=1;entryX=0.5;entryY=0;entryDx=0;entryDy=0;entryPerimeter=0;" edge="1" parent="JBsa1fQ0aQ5CUUhr2S4v-1" source="JBsa1fQ0aQ5CUUhr2S4v-26" target="JBsa1fQ0aQ5CUUhr2S4v-48">
          <mxGeometry relative="1" as="geometry" />
        </mxCell>
        <mxCell id="JBsa1fQ0aQ5CUUhr2S4v-43" value="Courier" style="swimlane;html=1;startSize=20;horizontal=0;" vertex="1" parent="JBsa1fQ0aQ5CUUhr2S4v-1">
          <mxGeometry y="470" width="1900" height="120" as="geometry" />
        </mxCell>
        <mxCell id="JBsa1fQ0aQ5CUUhr2S4v-44" style="edgeStyle=orthogonalEdgeStyle;rounded=0;orthogonalLoop=1;jettySize=auto;html=1;" edge="1" parent="JBsa1fQ0aQ5CUUhr2S4v-43" source="JBsa1fQ0aQ5CUUhr2S4v-45" target="JBsa1fQ0aQ5CUUhr2S4v-46">
          <mxGeometry relative="1" as="geometry" />
        </mxCell>
        <mxCell id="JBsa1fQ0aQ5CUUhr2S4v-45" value="Accept order" style="points=[[0.25,0,0],[0.5,0,0],[0.75,0,0],[1,0.25,0],[1,0.5,0],[1,0.75,0],[0.75,1,0],[0.5,1,0],[0.25,1,0],[0,0.75,0],[0,0.5,0],[0,0.25,0]];shape=mxgraph.bpmn.task;whiteSpace=wrap;rectStyle=rounded;size=10;html=1;container=1;expand=0;collapsible=0;taskMarker=abstract;" vertex="1" parent="JBsa1fQ0aQ5CUUhr2S4v-43">
          <mxGeometry x="480" y="40" width="104" height="55" as="geometry" />
        </mxCell>
        <mxCell id="JBsa1fQ0aQ5CUUhr2S4v-46" value="Is order accepted" style="points=[[0.25,0.25,0],[0.5,0,0],[0.75,0.25,0],[1,0.5,0],[0.75,0.75,0],[0.5,1,0],[0.25,0.75,0],[0,0.5,0]];shape=mxgraph.bpmn.gateway2;html=1;verticalLabelPosition=bottom;labelBackgroundColor=#ffffff;verticalAlign=top;align=center;perimeter=rhombusPerimeter;outlineConnect=0;outline=none;symbol=none;gwType=exclusive;" vertex="1" parent="JBsa1fQ0aQ5CUUhr2S4v-43">
          <mxGeometry x="670" y="42" width="50" height="50" as="geometry" />
        </mxCell>
        <mxCell id="JBsa1fQ0aQ5CUUhr2S4v-47" style="edgeStyle=orthogonalEdgeStyle;rounded=0;orthogonalLoop=1;jettySize=auto;html=1;entryX=0;entryY=0.5;entryDx=0;entryDy=0;entryPerimeter=0;" edge="1" parent="JBsa1fQ0aQ5CUUhr2S4v-43" source="JBsa1fQ0aQ5CUUhr2S4v-48" target="JBsa1fQ0aQ5CUUhr2S4v-49">
          <mxGeometry relative="1" as="geometry" />
        </mxCell>
        <mxCell id="JBsa1fQ0aQ5CUUhr2S4v-48" value="Receive new&lt;br&gt;order schedule" style="points=[[0.25,0,0],[0.5,0,0],[0.75,0,0],[1,0.25,0],[1,0.5,0],[1,0.75,0],[0.75,1,0],[0.5,1,0],[0.25,1,0],[0,0.75,0],[0,0.5,0],[0,0.25,0]];shape=mxgraph.bpmn.task;whiteSpace=wrap;rectStyle=rounded;size=10;html=1;container=1;expand=0;collapsible=0;taskMarker=abstract;" vertex="1" parent="JBsa1fQ0aQ5CUUhr2S4v-43">
          <mxGeometry x="923" y="40" width="104" height="55" as="geometry" />
        </mxCell>
        <mxCell id="JBsa1fQ0aQ5CUUhr2S4v-49" value="Come to warehouse" style="points=[[0.25,0,0],[0.5,0,0],[0.75,0,0],[1,0.25,0],[1,0.5,0],[1,0.75,0],[0.75,1,0],[0.5,1,0],[0.25,1,0],[0,0.75,0],[0,0.5,0],[0,0.25,0]];shape=mxgraph.bpmn.task;whiteSpace=wrap;rectStyle=rounded;size=10;html=1;container=1;expand=0;collapsible=0;taskMarker=abstract;" vertex="1" parent="JBsa1fQ0aQ5CUUhr2S4v-43">
          <mxGeometry x="1230" y="39.5" width="104" height="55" as="geometry" />
        </mxCell>
        <mxCell id="JBsa1fQ0aQ5CUUhr2S4v-50" style="edgeStyle=orthogonalEdgeStyle;rounded=0;orthogonalLoop=1;jettySize=auto;html=1;entryX=0;entryY=0.5;entryDx=0;entryDy=0;entryPerimeter=0;" edge="1" parent="JBsa1fQ0aQ5CUUhr2S4v-43" source="JBsa1fQ0aQ5CUUhr2S4v-51" target="JBsa1fQ0aQ5CUUhr2S4v-52">
          <mxGeometry relative="1" as="geometry">
            <mxPoint x="1540" y="67" as="targetPoint" />
          </mxGeometry>
        </mxCell>
        <mxCell id="JBsa1fQ0aQ5CUUhr2S4v-51" value="Deliver products" style="points=[[0.25,0,0],[0.5,0,0],[0.75,0,0],[1,0.25,0],[1,0.5,0],[1,0.75,0],[0.75,1,0],[0.5,1,0],[0.25,1,0],[0,0.75,0],[0,0.5,0],[0,0.25,0]];shape=mxgraph.bpmn.task;whiteSpace=wrap;rectStyle=rounded;size=10;html=1;container=1;expand=0;collapsible=0;taskMarker=abstract;" vertex="1" parent="JBsa1fQ0aQ5CUUhr2S4v-43">
          <mxGeometry x="1363" y="39.5" width="104" height="55" as="geometry" />
        </mxCell>
        <mxCell id="JBsa1fQ0aQ5CUUhr2S4v-52" value="The courier has arrived" style="points=[[0.145,0.145,0],[0.5,0,0],[0.855,0.145,0],[1,0.5,0],[0.855,0.855,0],[0.5,1,0],[0.145,0.855,0],[0,0.5,0]];shape=mxgraph.bpmn.event;html=1;verticalLabelPosition=bottom;labelBackgroundColor=#ffffff;verticalAlign=top;align=center;perimeter=ellipsePerimeter;outlineConnect=0;aspect=fixed;outline=throwing;symbol=general;fillColor=#dae8fc;strokeColor=#6c8ebf;" vertex="1" parent="JBsa1fQ0aQ5CUUhr2S4v-43">
          <mxGeometry x="1515" y="48.25" width="37.5" height="37.5" as="geometry" />
        </mxCell>
        <mxCell id="JBsa1fQ0aQ5CUUhr2S4v-53" value="Complete order" style="points=[[0.25,0,0],[0.5,0,0],[0.75,0,0],[1,0.25,0],[1,0.5,0],[1,0.75,0],[0.75,1,0],[0.5,1,0],[0.25,1,0],[0,0.75,0],[0,0.5,0],[0,0.25,0]];shape=mxgraph.bpmn.task;whiteSpace=wrap;rectStyle=rounded;size=10;html=1;container=1;expand=0;collapsible=0;taskMarker=abstract;" vertex="1" parent="JBsa1fQ0aQ5CUUhr2S4v-43">
          <mxGeometry x="1640" y="37" width="104" height="55" as="geometry" />
        </mxCell>
        <mxCell id="JBsa1fQ0aQ5CUUhr2S4v-54" style="edgeStyle=orthogonalEdgeStyle;rounded=0;orthogonalLoop=1;jettySize=auto;html=1;entryX=0.25;entryY=1;entryDx=0;entryDy=0;entryPerimeter=0;" edge="1" parent="JBsa1fQ0aQ5CUUhr2S4v-1" source="JBsa1fQ0aQ5CUUhr2S4v-49" target="JBsa1fQ0aQ5CUUhr2S4v-20">
          <mxGeometry relative="1" as="geometry" />
        </mxCell>
        <mxCell id="JBsa1fQ0aQ5CUUhr2S4v-55" style="edgeStyle=orthogonalEdgeStyle;rounded=0;orthogonalLoop=1;jettySize=auto;html=1;" edge="1" parent="JBsa1fQ0aQ5CUUhr2S4v-1" source="JBsa1fQ0aQ5CUUhr2S4v-20" target="JBsa1fQ0aQ5CUUhr2S4v-29">
          <mxGeometry relative="1" as="geometry" />
        </mxCell>
        <mxCell id="JBsa1fQ0aQ5CUUhr2S4v-56" style="edgeStyle=orthogonalEdgeStyle;rounded=0;orthogonalLoop=1;jettySize=auto;html=1;entryX=0.5;entryY=0;entryDx=0;entryDy=0;entryPerimeter=0;" edge="1" parent="JBsa1fQ0aQ5CUUhr2S4v-1" source="JBsa1fQ0aQ5CUUhr2S4v-29" target="JBsa1fQ0aQ5CUUhr2S4v-51">
          <mxGeometry relative="1" as="geometry" />
        </mxCell>
        <mxCell id="JBsa1fQ0aQ5CUUhr2S4v-57" style="edgeStyle=orthogonalEdgeStyle;rounded=0;orthogonalLoop=1;jettySize=auto;html=1;entryX=0.25;entryY=1;entryDx=0;entryDy=0;entryPerimeter=0;" edge="1" parent="JBsa1fQ0aQ5CUUhr2S4v-1" source="JBsa1fQ0aQ5CUUhr2S4v-52" target="JBsa1fQ0aQ5CUUhr2S4v-12">
          <mxGeometry relative="1" as="geometry" />
        </mxCell>
        <mxCell id="JBsa1fQ0aQ5CUUhr2S4v-58" style="edgeStyle=orthogonalEdgeStyle;rounded=0;orthogonalLoop=1;jettySize=auto;html=1;entryX=0;entryY=0.5;entryDx=0;entryDy=0;entryPerimeter=0;exitX=0.85;exitY=0.985;exitDx=0;exitDy=0;exitPerimeter=0;" edge="1" parent="JBsa1fQ0aQ5CUUhr2S4v-1" source="JBsa1fQ0aQ5CUUhr2S4v-12" target="JBsa1fQ0aQ5CUUhr2S4v-53">
          <mxGeometry relative="1" as="geometry">
            <mxPoint x="1639.9999999999995" y="300" as="targetPoint" />
          </mxGeometry>
        </mxCell>
        <mxCell id="JBsa1fQ0aQ5CUUhr2S4v-59" style="edgeStyle=orthogonalEdgeStyle;rounded=0;orthogonalLoop=1;jettySize=auto;html=1;entryX=0.5;entryY=1;entryDx=0;entryDy=0;entryPerimeter=0;" edge="1" parent="JBsa1fQ0aQ5CUUhr2S4v-1" source="JBsa1fQ0aQ5CUUhr2S4v-53" target="JBsa1fQ0aQ5CUUhr2S4v-31">
          <mxGeometry relative="1" as="geometry" />
        </mxCell>
      </root>
    </mxGraphModel>
  </diagram>
</mxfile>
